<?xml version="1.0" standalone="no"?>
<!DOCTYPE svg PUBLIC "-//W3C//DTD SVG 20010904//EN"
 "http://www.w3.org/TR/2001/REC-SVG-20010904/DTD/svg10.dtd">
<svg version="1.0" xmlns="http://www.w3.org/2000/svg"
 width="512.000000pt" height="512.000000pt" viewBox="0 0 512.000000 512.000000"
 preserveAspectRatio="xMidYMid meet">

<g transform="translate(0.000000,512.000000) scale(0.100000,-0.100000)"
fill="#000000" stroke="none">
<path d="M1187 5043 c11 -25 169 -191 444 -468 317 -318 429 -438 434 -460 4
-16 9 -36 11 -44 8 -24 -34 -96 -67 -115 -42 -25 -99 -24 -143 2 l-36 21 0
-1508 0 -1509 93 -4 c102 -5 143 -20 173 -65 16 -24 19 -51 22 -185 l4 -158
409 0 409 0 0 293 0 293 30 11 c53 20 62 96 17 128 -18 13 -79 15 -369 15
l-348 0 0 140 0 140 -64 0 c-99 0 -96 -7 -96 249 0 166 3 221 13 229 7 6 42
12 77 14 l65 3 3 127 3 128 -65 0 c-99 0 -96 -7 -96 250 0 215 0 219 22 234
14 10 44 16 80 16 l58 0 0 125 0 125 -63 0 c-99 0 -97 -5 -97 253 0 254 -3
247 96 247 l64 0 0 250 0 250 385 0 385 0 7 33 c4 26 90 117 437 467 277 279
438 448 449 473 l17 37 -1390 0 -1390 0 17 -37z"/>
<path d="M3617 4312 l-317 -317 0 -1518 0 -1517 158 0 157 0 -3 226 c-2 161 1
230 9 240 8 9 33 14 75 14 l64 0 0 130 0 130 -64 0 c-42 0 -67 5 -75 14 -8 9
-11 82 -9 242 l3 229 73 3 72 3 0 129 0 130 -63 0 c-36 0 -68 5 -75 12 -9 9
-12 76 -12 240 0 261 -5 248 94 248 l56 0 0 125 0 125 -56 0 c-99 0 -94 -13
-94 250 0 263 -5 250 93 250 l55 0 4 123 c5 185 8 190 288 472 l230 231 -53
52 -53 52 -24 -25 c-49 -52 -136 -52 -190 0 l-26 25 -317 -318z"/>
<path d="M1515 234 c204 -99 446 -171 697 -209 452 -69 1014 19 1403 218 l70
36 -1130 -1 -1130 0 90 -44z"/>
</g>
</svg>
